<svg xmlns="http://www.w3.org/2000/svg" viewBox="0 0 64 64" fill="none">
  <defs>
    <linearGradient id="bg" x1="10" y1="6" x2="54" y2="58" gradientUnits="userSpaceOnUse">
      <stop stop-color="#3f3f46" />
      <stop offset="0.52" stop-color="#18181b" />
      <stop offset="1" stop-color="#09090b" />
    </linearGradient>
    <linearGradient id="trim" x1="12" y1="8" x2="52" y2="56" gradientUnits="userSpaceOnUse">
      <stop stop-color="#71717a" />
      <stop offset="1" stop-color="#27272a" />
    </linearGradient>
    <linearGradient id="metal" x1="18" y1="16" x2="42" y2="46" gradientUnits="userSpaceOnUse">
      <stop stop-color="#fafafa" />
      <stop offset="0.45" stop-color="#e4e4e7" />
      <stop offset="1" stop-color="#a1a1aa" />
    </linearGradient>
    <linearGradient id="spark" x1="31" y1="14" x2="41" y2="48" gradientUnits="userSpaceOnUse">
      <stop stop-color="#f5f5f5" />
      <stop offset="1" stop-color="#d4d4d8" />
    </linearGradient>
    <filter id="shadow" x="0" y="0" width="64" height="64" filterUnits="userSpaceOnUse" color-interpolation-filters="sRGB">
      <feDropShadow dx="0" dy="6" stdDeviation="6" flood-opacity="0.22" />
    </filter>
  </defs>
  <g filter="url(#shadow)">
    <rect x="4" y="4" width="56" height="56" rx="16" fill="url(#bg)" stroke="url(#trim)" stroke-width="1.5" />
    <rect x="10" y="10" width="44" height="44" rx="12" fill="#111215" fill-opacity="0.42" />
    <path d="M21 18h18c3.314 0 6 2.686 6 6v1h-8v-1c0-.552-.448-1-1-1H29v8h10v6H29v10h-8V18Z" fill="url(#metal)" />
    <path d="M39.2 14 31 29.2h6.1L33.8 50 45 32.6h-6.6L39.2 14Z" fill="url(#spark)" />
    <circle cx="48.5" cy="19.5" r="2.5" fill="#a1a1aa" fill-opacity="0.55" />
    <path d="M43 21.5h3" stroke="#71717a" stroke-width="1.5" stroke-linecap="round" />
  </g>
</svg>